<svg width="50" height="50" viewBox="0 0 50 50" xmlns="http://www.w3.org/2000/svg"><title>gigi-school-logo</title><path d="M8.654 22.23a.412.412 0 0 0 .37-.41v-1.367h.07a17.532 17.532 0 0 1 6.464-12.098.413.413 0 0 0 .05-.6l-3.454-3.778a.414.414 0 0 0-.526-.072C5.274 7.925.861 14.735.111 22.613a.413.413 0 0 0 .454.447l8.089-.83M32.353 5.432a17.6 17.6 0 0 1 7.84 5.49.41.41 0 0 0 .568.071l2.702-2.042a.413.413 0 0 0 .06-.604 24.99 24.99 0 0 0-9.951-6.76.414.414 0 0 0-.536.267l-.945 3.067a.412.412 0 0 0 .262.51M19.536 38.112c-5.482-2.405-9.5-7.53-10.346-13.667a.412.412 0 0 0-.45-.357l-8.367.858-.373.416c.148 10.583 6.884 19.573 16.293 23.053a.413.413 0 0 0 .536-.268l2.938-9.537a.412.412 0 0 0-.23-.498M17.226 6.775a.412.412 0 0 0 .513.075 17.48 17.48 0 0 1 8.846-2.388c1.103 0 2.183.102 3.23.297a.41.41 0 0 0 .47-.282l.977-3.167a.413.413 0 0 0-.293-.523 25.01 25.01 0 0 0-6.02-.732c-3.9 0-7.59.895-10.877 2.49a.412.412 0 0 0-.12.648l3.274 3.582m32.566 15.907a.413.413 0 0 0-.413-.373h-5.235v.007L26.74 22.16a.413.413 0 0 0-.4.297l-1.585 5.437c-.08.277.14.549.427.526l17.629-1.354a.414.414 0 0 1 .42.547c-2.334 6.957-8.902 11.972-16.646 11.972-1.581 0-3.114-.21-4.572-.602a.411.411 0 0 0-.503.274l-2.908 9.438a.413.413 0 0 0 .292.522c1.938.484 3.966.74 6.054.74 13.78 0 24.951-11.17 24.951-24.95 0-.784-.036-1.56-.107-2.325" fill="#5FAFC5" fill-rule="evenodd"/></svg>